<mxfile host="app.diagrams.net" modified="2022-11-30T08:07:02.897Z" agent="5.0 (X11; Ubuntu)" etag="U5_Xx3-K1hrnIDnP0u6g" version="20.6.0" type="github">
  <diagram id="C5RBs43oDa-KdzZeNtuy" name="Page-1">
    <mxGraphModel dx="512" dy="1083" grid="1" gridSize="10" guides="1" tooltips="1" connect="1" arrows="1" fold="1" page="1" pageScale="1" pageWidth="827" pageHeight="1169" math="0" shadow="0">
      <root>
        <mxCell id="WIyWlLk6GJQsqaUBKTNV-0" />
        <mxCell id="WIyWlLk6GJQsqaUBKTNV-1" parent="WIyWlLk6GJQsqaUBKTNV-0" />
        <mxCell id="TqXsukx5uQ0ITBVl4M87-26" style="edgeStyle=orthogonalEdgeStyle;rounded=0;orthogonalLoop=1;jettySize=auto;html=1;entryX=0;entryY=0.5;entryDx=0;entryDy=0;" edge="1" parent="WIyWlLk6GJQsqaUBKTNV-1" source="TqXsukx5uQ0ITBVl4M87-1" target="TqXsukx5uQ0ITBVl4M87-10">
          <mxGeometry relative="1" as="geometry">
            <mxPoint x="170" y="820" as="targetPoint" />
            <Array as="points">
              <mxPoint x="117" y="850" />
            </Array>
          </mxGeometry>
        </mxCell>
        <mxCell id="TqXsukx5uQ0ITBVl4M87-1" value="roba = roba d&#39;esquiar" style="rounded=1;whiteSpace=wrap;html=1;" vertex="1" parent="WIyWlLk6GJQsqaUBKTNV-1">
          <mxGeometry x="57" y="320" width="120" height="60" as="geometry" />
        </mxCell>
        <mxCell id="TqXsukx5uQ0ITBVl4M87-13" style="edgeStyle=orthogonalEdgeStyle;rounded=0;orthogonalLoop=1;jettySize=auto;html=1;entryX=0.5;entryY=0;entryDx=0;entryDy=0;" edge="1" parent="WIyWlLk6GJQsqaUBKTNV-1" source="TqXsukx5uQ0ITBVl4M87-3" target="TqXsukx5uQ0ITBVl4M87-1">
          <mxGeometry relative="1" as="geometry">
            <Array as="points">
              <mxPoint x="117" y="200" />
            </Array>
          </mxGeometry>
        </mxCell>
        <mxCell id="TqXsukx5uQ0ITBVl4M87-14" style="edgeStyle=orthogonalEdgeStyle;rounded=0;orthogonalLoop=1;jettySize=auto;html=1;entryX=0.5;entryY=0;entryDx=0;entryDy=0;" edge="1" parent="WIyWlLk6GJQsqaUBKTNV-1" source="TqXsukx5uQ0ITBVl4M87-3" target="TqXsukx5uQ0ITBVl4M87-4">
          <mxGeometry relative="1" as="geometry">
            <Array as="points">
              <mxPoint x="359" y="200" />
              <mxPoint x="359" y="275" />
            </Array>
          </mxGeometry>
        </mxCell>
        <mxCell id="TqXsukx5uQ0ITBVl4M87-3" value="temperatura &amp;lt; 0" style="rhombus;whiteSpace=wrap;html=1;" vertex="1" parent="WIyWlLk6GJQsqaUBKTNV-1">
          <mxGeometry x="177" y="160" width="121" height="80" as="geometry" />
        </mxCell>
        <mxCell id="TqXsukx5uQ0ITBVl4M87-15" style="edgeStyle=orthogonalEdgeStyle;rounded=0;orthogonalLoop=1;jettySize=auto;html=1;entryX=0.5;entryY=0;entryDx=0;entryDy=0;" edge="1" parent="WIyWlLk6GJQsqaUBKTNV-1" source="TqXsukx5uQ0ITBVl4M87-4" target="TqXsukx5uQ0ITBVl4M87-7">
          <mxGeometry relative="1" as="geometry">
            <Array as="points">
              <mxPoint x="238" y="350" />
            </Array>
          </mxGeometry>
        </mxCell>
        <mxCell id="TqXsukx5uQ0ITBVl4M87-16" style="edgeStyle=orthogonalEdgeStyle;rounded=0;orthogonalLoop=1;jettySize=auto;html=1;entryX=0.5;entryY=0;entryDx=0;entryDy=0;" edge="1" parent="WIyWlLk6GJQsqaUBKTNV-1" source="TqXsukx5uQ0ITBVl4M87-4" target="TqXsukx5uQ0ITBVl4M87-5">
          <mxGeometry relative="1" as="geometry">
            <Array as="points">
              <mxPoint x="480" y="350" />
              <mxPoint x="480" y="425" />
            </Array>
          </mxGeometry>
        </mxCell>
        <mxCell id="TqXsukx5uQ0ITBVl4M87-4" value="temperatura &amp;lt; 10" style="rhombus;whiteSpace=wrap;html=1;" vertex="1" parent="WIyWlLk6GJQsqaUBKTNV-1">
          <mxGeometry x="298" y="310" width="121" height="80" as="geometry" />
        </mxCell>
        <mxCell id="TqXsukx5uQ0ITBVl4M87-17" style="edgeStyle=orthogonalEdgeStyle;rounded=0;orthogonalLoop=1;jettySize=auto;html=1;entryX=0.5;entryY=0;entryDx=0;entryDy=0;" edge="1" parent="WIyWlLk6GJQsqaUBKTNV-1" source="TqXsukx5uQ0ITBVl4M87-5" target="TqXsukx5uQ0ITBVl4M87-8">
          <mxGeometry relative="1" as="geometry">
            <Array as="points">
              <mxPoint x="360" y="500" />
              <mxPoint x="360" y="578" />
              <mxPoint x="359" y="578" />
            </Array>
          </mxGeometry>
        </mxCell>
        <mxCell id="TqXsukx5uQ0ITBVl4M87-19" style="edgeStyle=orthogonalEdgeStyle;rounded=0;orthogonalLoop=1;jettySize=auto;html=1;" edge="1" parent="WIyWlLk6GJQsqaUBKTNV-1" source="TqXsukx5uQ0ITBVl4M87-5" target="TqXsukx5uQ0ITBVl4M87-6">
          <mxGeometry relative="1" as="geometry">
            <Array as="points">
              <mxPoint x="601" y="500" />
            </Array>
          </mxGeometry>
        </mxCell>
        <mxCell id="TqXsukx5uQ0ITBVl4M87-5" value="temperatura &amp;lt; 20" style="rhombus;whiteSpace=wrap;html=1;" vertex="1" parent="WIyWlLk6GJQsqaUBKTNV-1">
          <mxGeometry x="419" y="460" width="121" height="80" as="geometry" />
        </mxCell>
        <mxCell id="TqXsukx5uQ0ITBVl4M87-18" style="edgeStyle=orthogonalEdgeStyle;rounded=0;orthogonalLoop=1;jettySize=auto;html=1;entryX=0.5;entryY=0;entryDx=0;entryDy=0;" edge="1" parent="WIyWlLk6GJQsqaUBKTNV-1" source="TqXsukx5uQ0ITBVl4M87-6" target="TqXsukx5uQ0ITBVl4M87-9">
          <mxGeometry relative="1" as="geometry">
            <Array as="points">
              <mxPoint x="480" y="645" />
            </Array>
          </mxGeometry>
        </mxCell>
        <mxCell id="TqXsukx5uQ0ITBVl4M87-20" style="edgeStyle=orthogonalEdgeStyle;rounded=0;orthogonalLoop=1;jettySize=auto;html=1;entryX=0.567;entryY=-0.067;entryDx=0;entryDy=0;entryPerimeter=0;" edge="1" parent="WIyWlLk6GJQsqaUBKTNV-1" source="TqXsukx5uQ0ITBVl4M87-6" target="TqXsukx5uQ0ITBVl4M87-10">
          <mxGeometry relative="1" as="geometry">
            <Array as="points">
              <mxPoint x="719" y="645" />
            </Array>
          </mxGeometry>
        </mxCell>
        <mxCell id="TqXsukx5uQ0ITBVl4M87-6" value="temperatura &amp;lt; 0" style="rhombus;whiteSpace=wrap;html=1;" vertex="1" parent="WIyWlLk6GJQsqaUBKTNV-1">
          <mxGeometry x="540" y="605" width="121" height="80" as="geometry" />
        </mxCell>
        <mxCell id="TqXsukx5uQ0ITBVl4M87-24" style="edgeStyle=orthogonalEdgeStyle;rounded=0;orthogonalLoop=1;jettySize=auto;html=1;entryX=0;entryY=0.5;entryDx=0;entryDy=0;" edge="1" parent="WIyWlLk6GJQsqaUBKTNV-1" source="TqXsukx5uQ0ITBVl4M87-7" target="TqXsukx5uQ0ITBVl4M87-10">
          <mxGeometry relative="1" as="geometry">
            <Array as="points">
              <mxPoint x="238" y="850" />
            </Array>
          </mxGeometry>
        </mxCell>
        <mxCell id="TqXsukx5uQ0ITBVl4M87-7" value="roba = roba de muntanya" style="rounded=1;whiteSpace=wrap;html=1;" vertex="1" parent="WIyWlLk6GJQsqaUBKTNV-1">
          <mxGeometry x="178" y="470" width="120" height="60" as="geometry" />
        </mxCell>
        <mxCell id="TqXsukx5uQ0ITBVl4M87-23" style="edgeStyle=orthogonalEdgeStyle;rounded=0;orthogonalLoop=1;jettySize=auto;html=1;entryX=0;entryY=0.5;entryDx=0;entryDy=0;" edge="1" parent="WIyWlLk6GJQsqaUBKTNV-1" source="TqXsukx5uQ0ITBVl4M87-8" target="TqXsukx5uQ0ITBVl4M87-10">
          <mxGeometry relative="1" as="geometry">
            <mxPoint x="359" y="830" as="targetPoint" />
            <Array as="points">
              <mxPoint x="360" y="850" />
            </Array>
          </mxGeometry>
        </mxCell>
        <mxCell id="TqXsukx5uQ0ITBVl4M87-8" value="roba = roba d&#39;hivern" style="rounded=1;whiteSpace=wrap;html=1;" vertex="1" parent="WIyWlLk6GJQsqaUBKTNV-1">
          <mxGeometry x="299" y="615" width="120" height="60" as="geometry" />
        </mxCell>
        <mxCell id="TqXsukx5uQ0ITBVl4M87-21" style="edgeStyle=orthogonalEdgeStyle;rounded=0;orthogonalLoop=1;jettySize=auto;html=1;entryX=0;entryY=0.5;entryDx=0;entryDy=0;" edge="1" parent="WIyWlLk6GJQsqaUBKTNV-1" source="TqXsukx5uQ0ITBVl4M87-9" target="TqXsukx5uQ0ITBVl4M87-10">
          <mxGeometry relative="1" as="geometry">
            <Array as="points">
              <mxPoint x="480" y="850" />
            </Array>
          </mxGeometry>
        </mxCell>
        <mxCell id="TqXsukx5uQ0ITBVl4M87-9" value="roba = roba d&#39;estiu" style="rounded=1;whiteSpace=wrap;html=1;" vertex="1" parent="WIyWlLk6GJQsqaUBKTNV-1">
          <mxGeometry x="420" y="750" width="120" height="60" as="geometry" />
        </mxCell>
        <mxCell id="TqXsukx5uQ0ITBVl4M87-10" value="return roba" style="rounded=0;whiteSpace=wrap;html=1;" vertex="1" parent="WIyWlLk6GJQsqaUBKTNV-1">
          <mxGeometry x="651" y="820" width="120" height="60" as="geometry" />
        </mxCell>
        <mxCell id="TqXsukx5uQ0ITBVl4M87-12" style="edgeStyle=orthogonalEdgeStyle;rounded=0;orthogonalLoop=1;jettySize=auto;html=1;entryX=0.5;entryY=0;entryDx=0;entryDy=0;" edge="1" parent="WIyWlLk6GJQsqaUBKTNV-1" source="TqXsukx5uQ0ITBVl4M87-11" target="TqXsukx5uQ0ITBVl4M87-3">
          <mxGeometry relative="1" as="geometry" />
        </mxCell>
        <mxCell id="TqXsukx5uQ0ITBVl4M87-11" value="roba = res" style="rounded=1;whiteSpace=wrap;html=1;" vertex="1" parent="WIyWlLk6GJQsqaUBKTNV-1">
          <mxGeometry x="177" y="40" width="120" height="60" as="geometry" />
        </mxCell>
      </root>
    </mxGraphModel>
  </diagram>
</mxfile>
